<svg xmlns="http://www.w3.org/2000/svg" xml:space="preserve" viewBox="400 300 400 600"><path fill="#4318ff" d="M523.25 671.75c-10.146-10.145-20.072-20.01-29.913-29.961-1.85-1.872-3.341-2.603-6.319-1.925-28.256 6.438-50.667-14.01-49.86-41.23.51-17.19 13.21-33.193 31.83-37.036 0-12.704.087-25.507-.153-38.305-.022-1.122-2.014-2.744-3.403-3.218-13.492-4.603-22.626-13.353-26.52-27.233-4.357-15.527-.662-28.721 10.788-40.211 7.842-7.87 17.44-11.534 27.865-11.39 14.842.206 26.767 7.004 34.51 20.126 12.068 20.452 4.243 43.497-14.352 55.281-.55.35-1.147.771-1.762.852-9.286 1.219-10.806 6.98-10.136 15.286.76 9.424.176 18.957.176 28.587 15.197 4.035 25.4 13.194 30.007 28.228 4.686 15.29.157 28.307-9.3 39.438l64.036 64.048c25.028-25.299 63.146-11.04 69.884 18.903 13.905 0 27.885.08 41.86-.144 1.175-.019 2.967-1.875 3.374-3.212 4.616-15.18 17.448-25.783 32.903-27.71 21.692-2.704 35.753 8.322 42.71 23.67 6.14 13.548 5.01 28.734-6.617 42.151-8.419 9.715-19.142 14.272-31.543 14.111-15.557-.202-31.443-10.077-36.495-26.436-1.225-3.967-2.947-5.71-7.538-5.563-12.806.41-25.633.143-38.623.143-3.324 13.597-11.44 23.059-24.013 28.71-16.83 7.563-38.1.655-47.95-13.126-7.125-9.966-8.577-20.69-7.468-32.311.113-1.182-.392-2.808-1.209-3.636-12.113-12.27-24.328-24.442-36.769-36.887m-60.69-88.795c-.59.586-1.184 1.167-1.768 1.759-8.013 8.117-9.013 18.577-2.796 29.232 4.46 7.643 16.735 12.763 25.29 9.785 11.059-3.85 17.517-11.052 17.58-23.357.042-7.977-3.746-14.898-10.545-19.049-9.03-5.512-18.42-5.536-27.76 1.63M718.719 742.99c1.584.337 3.17.973 4.752.961 10.28-.08 17.772-4.805 22.15-14.088 4.311-9.142 2.583-17.28-4.09-24.866-6.6-7.503-14.558-9.638-23.788-6.904-8.242 2.442-13.678 8.086-15.739 16.53-3.148 12.902 2.71 23.183 16.715 28.367M497.096 468.64c-2.88-2.593-5.4-5.832-8.702-7.662-11.49-6.372-23.172-2.74-31.104 8.556-5.829 8.301-4.69 22.576 6.315 30.477 10.014 7.19 17.663 6.224 26.774.829 6.113-3.62 13.407-16.315 9.687-24.263-1.093-2.334-1.643-4.922-2.97-7.937m80.963 257.22c4.192 14.476 17.302 20.034 26.917 17.872 9.931-2.233 20.414-10.141 19.027-24.935-.908-9.677-5.696-16.395-14.776-20.158-8.751-3.627-16.372-1.29-23.406 4.09-7.4 5.659-8.442 13.7-7.762 23.131zM764.96 595.536c1.129 14.068-3.153 25.643-13.085 35.097-14.28 13.59-38.845 14.41-54.278.555-14.323-12.86-16.878-32.139-9.73-48.085.62-1.384.417-4.11-.547-5.089-20.804-21.126-41.771-42.091-62.356-62.735-5.65 2.057-10.672 4.499-15.975 5.71-20.735 4.734-41.75-8.763-46.913-28.423-5.675-21.61 3.362-37.634 20.619-47.24 13.948-7.763 31.21-5.95 44.433 5.236 9.682 8.191 13.993 19.022 14.581 31.11.259 5.306-2.046 10.852-3.78 16.094-.956 2.892-.976 4.815 1.286 7.033a2341.731 2341.731 0 0 1 29.925 29.836c8.354 8.491 16.517 17.171 24.781 25.752 1.67 1.735 3.19 3.78 5.202 4.966 1.378.814 3.916 1.138 5.202.4 11.427-6.553 23.59-6.751 35.311-2.474 9.364 3.416 16.653 10.478 20.916 19.892 1.741 3.845 2.937 7.938 4.408 12.365M613.84 500.47c1.919-1.545 4.328-2.749 5.676-4.69 8.908-12.827 3.152-33.528-12.367-36.282-15.595-2.769-27.838 5.113-29.084 20.85-1.262 15.938 16.289 30.933 35.775 20.122m92.152 113.972c4.745 7.357 13.977 10.47 23.66 8.563 12.098-2.382 19.057-12.547 17.187-25.548-1.64-11.414-8.91-18.88-22.132-19.39-9.174-.353-16.358 4.029-20.54 11.93-4.176 7.893-3.799 16.19 1.825 24.445z"/><path fill="#4318ff" d="M636.327 620.245c-11.475 21.496-38.24 26.685-57.107 14.75-11.112-7.03-17.218-17.534-18.229-30.822-.85-11.186 2.174-20.94 9.624-29.545 6.413-7.406 14.375-12.159 23.76-13.425 21.214-2.861 38.44 8.036 44.929 27.755 3.428 10.419 2.722 21.06-2.977 31.287m-20.358-36.772c-4.68-4.26-10.313-7.16-16.49-6.26-11.454 1.667-22.451 10.773-21.664 24.721.848 15.017 14.564 25.275 29.169 21.466 18.33-4.78 23.022-28.399 8.985-39.927zM685.046 490.597c-1.948-8.517-1.357-16.484 2.006-24.023 5.906-13.24 15.728-22.049 30.31-24.519 19.424-3.289 34.021 4.902 43.082 21.384 6.465 11.76 6.352 24.798-.484 37.113-7.636 13.756-19.636 20.82-34.978 21.302-17.331.545-33.65-10.82-38.945-28.056-.287-.934-.639-1.85-.99-3.2m19.898-22.005c-10.308 15.237.825 35.436 18.4 36.315 11.413.571 20.978-6.512 24.275-19.417 2.012-7.878-2.579-19.398-12.209-24.685-7.87-4.322-20.294-5.058-30.466 7.787zM514.799 736.524c-8.15 15.647-20.656 24.351-37.998 24.343-18.84-.01-35.681-14.528-39.11-33.944-3.592-20.33 11.395-41.16 30.27-45.529 16.966-3.926 35.316 3.788 44.19 18.99 6.765 11.593 6.958 23.455 2.648 36.14m-23.301-34.531c-6.647-6.412-20.955-6.898-29.193.917-8.02 7.61-10.351 15.595-6.254 26.997 2.778 7.73 12.298 14.15 21.24 14.066 9.6-.09 18.225-5.792 22.554-16.562 2.772-6.896.115-18.822-8.347-25.418z"/><path fill="#2841CC" d="M498.495 383.44c-.312-10.815-.312-21.28-.312-32.408 6.263 0 12.404-.449 18.449.122 6.452.61 9.952 10.658 6.266 17.045-.652 1.131-1.626 2.077-2.674 3.385 2.17 3.792 4.405 7.7 6.62 11.568-9.648 4.084-13.908-2.34-17.413-10.272l-1.194 1.378-.438 9.53c-3.115 0-6.053 0-9.304-.348m10.198-24.232-.78 6.504 1.709 1.13c1.454-1.41 3.732-2.598 4.186-4.279.86-3.18-1.634-3.768-5.115-3.355z"/><path fill="#4318ff" d="M577.051 378.846c.671 1.706 1.295 3.014 2.14 4.784h-10.847c-.6-1.978-1.244-4.103-1.89-6.224-4.448-1.184-8.013-.936-9.21 4.67-.186.873-2.445 1.638-3.835 1.841-2.107.308-4.293.08-7.126.08l12.01-32.612c8.557-.958 8.688-.816 11.371 6.865 2.362 6.762 4.887 13.467 7.387 20.596z"/><path fill="#2841CC" d="M497 831.973c.033-5.827.06-11.158.112-16.49.003-.297.22-.592.564-1.458 5.05 0 10.45-.664 15.558.27 2.715.496 5.97 3.299 7.121 5.887 1.87 4.207 1.104 8.806-3 11.991l6.406 11.229c-4.486-.536-8.353-.01-10.93-1.59-2.448-1.5-3.548-5.2-5.241-7.934l-1.345.225-.43 8.611h-8.814v-10.741m14.434-6.007c.7-4.915.294-5.27-5.13-4.375v5.496c1.738-.2 3.14-.36 5.13-1.12z"/><path fill="#2740CD" d="M747.77 835.322a683.826 683.826 0 0 1 3.742 6.813c-9.237 4.391-12.225-3.069-16.08-8.866l-1.15.806-.476 8.497h-7.466v-28.547c5.442 0 10.753-.368 15.99.094 6.547.577 9.48 9.683 5.362 16.498-1.02 1.687-2.393 2.84.078 4.705m-13.738-12.583c.1 1.38.198 2.762.305 4.252 1.406 0 2.232.047 3.051-.013.787-.059 1.565-.228 2.299-.34.244-5.896-.307-6.344-5.655-3.9zM734.897 382.419c-6.801-3.685-9.015-9.798-8.695-16.356.317-6.506 3.783-11.695 10.338-14.285 5.779-2.284 13.935-.849 17.141 3.576.684.944.18 2.748.224 4.156-2.63-.081-3.61 5.741-6.724 2.416-2.236-2.39-4.667-4.345-6.962-2.207-2.152 2.005-3.593 5.57-3.826 8.566-.165 2.112 1.736 5 3.564 6.518 3.45 2.865 5.973.526 7.886-3.003l8.09 4.728c-4.23 7.47-12.114 9.742-21.036 5.89z"/><path fill="#2741CC" d="M658.646 818.62c-7.852 8.467-7.865 8.544-.988 17.494 1.66 2.16 3.407 4.252 5.034 6.276-9.397 3.674-12.735-3.385-16.507-9.676l-1.406.31-1.206 9.577h-8.25v-28.36h8.488v10.19c5.258-5.92 8.416-13.59 17.554-9.85l-2.719 4.04z"/><path fill="#4318ff" d="M657.026 374.262c-.016 3.283-.016 6.1-.016 9.327h-9.68v-32.316h22.292v7.571h-12.206l-.466 5.105h10.806v8.054c-2.457 0-4.905-.19-7.301.08-1.187.134-2.279 1.115-3.43 2.179zM612.412 363.906c3.259.06 6.066.06 9.233.06v7.878h-10.458v11.84h-9.778v-32.332h22.318v7.504H610.76c.514 2.135.858 3.563 1.652 5.05zM692.46 835.914c3.926.056 7.395.056 11.198.056v6.769h-21.295v-28.457h21.268v6.55h-11.722c-.638 3.08-.638 3.08 9.835 4.724v6.45c-2.627 0-5.226-.007-7.824.003-3.182.011-3.903 1.26-1.46 3.905zM564.216 842.998c-1.656-.614-3.406-.904-4.017-1.896-2.533-4.106-2.407-4.184-7.663-3.905l-1.973 5.562h-9.326c3.343-9.185 6.478-18.25 10.085-27.123.437-1.075 3.42-1.503 5.226-1.505 1.333-.003 3.477.857 3.877 1.876 3.388 8.631 6.46 17.387 9.948 26.992l-6.157-.001z"/><path fill="#2741CC" d="M465 375.925v7.727h-9.872v-24.424l-8.818-.394v-7.422h28.32v7.422H465v17.091z"/><path fill="#2741CD" d="M610.017 815.576c1.766 1.324 3.253 2.373 5.233 3.77l-7.79 5.383c-2.63-1.567-4.284-6.202-8.262-2.377-2.828 2.72-3.023 9.21-.453 11.823 2.503 2.546 4.15 2.204 8.65-1.817l6.829 4.082c-2.878 6.235-7.956 6.847-13.588 6.587-5.579-.258-9.874-3.261-11.646-8.715-2.003-6.16-1.955-12.226 3.168-16.848 5.163-4.659 11.337-4.518 17.859-1.888z"/><path fill="#4318ff" d="M464.98 814h10.69v6.793c-2.43.13-4.7.25-7.54.4v21.503h-8.914v-21.334l-7.947-.65V814h13.71zM702.491 383.454c-3.122.341-5.924.341-9.109.341v-32.432h9.43c0 10.645 0 21.198-.32 32.091z"/></svg>